<svg width="24" height="24" viewBox="0 0 24 24" fill="none" xmlns="http://www.w3.org/2000/svg">
    <g opacity="0.6">
        <path fill-rule="evenodd" clip-rule="evenodd"
              d="M22.1278 8.36049C21.5627 7.02232 20.7515 5.82011 19.72 4.78755C18.6875 3.755 17.4853 2.94491 16.1482 2.37975C13.3786 1.20675 10.1675 1.20675 7.39903 2.37975C6.06199 2.94491 4.85977 3.75612 3.82722 4.78755C3.45082 5.16282 3.45082 5.77292 3.82722 6.14931C4.20361 6.52459 4.98434 6.52683 5.36074 6.15044C6.21689 5.2954 7.04174 4.84311 8.14845 4.37458C10.4416 3.40382 13.1045 3.40157 15.3977 4.37458C16.5055 4.84311 17.31 5.50044 18.1662 6.35547C19.0212 7.21163 19.6699 8.00438 20.1373 9.11334C20.6227 10.2594 20.8145 11.4761 20.8145 12.7345C20.8145 13.9929 20.6238 15.1867 20.1373 16.3338C19.671 17.4417 19.0212 18.2739 18.1662 19.13C17.31 19.9851 16.5044 20.6649 15.3977 21.1345C13.1045 22.1053 10.4416 22.1075 8.14845 21.1345C7.04061 20.666 6.21689 20.1737 5.36074 19.3186C4.98434 18.9422 4.20361 18.9434 3.82722 19.3186C3.45082 19.695 3.45082 20.3051 3.82722 20.6804C4.85977 21.7129 6.06199 22.523 7.39903 23.0882C8.78326 23.6747 10.2563 23.9724 11.7742 23.9724C13.2921 23.9724 14.764 23.6747 16.1494 23.0893C17.4864 22.5242 18.6886 21.7129 19.7212 20.6815C20.7537 19.649 21.5638 18.4467 22.1278 17.1097C22.7143 15.7243 23.0121 14.2525 23.0121 12.7345C23.0121 11.2166 22.7132 9.74472 22.1278 8.36049Z"
              fill="white"/>
        <path fill-rule="evenodd" clip-rule="evenodd"
              d="M11.9379 15.2435C11.5627 15.6188 11.5627 16.2277 11.9379 16.6041L11.939 16.6064C12.3143 16.9817 12.9244 16.9817 13.2997 16.6064L16.4816 13.4244C16.8569 13.0492 16.8569 12.4413 16.4827 12.0661L13.2997 8.86726C12.9244 8.48975 12.3143 8.48975 11.9379 8.86614C11.5627 9.24141 11.5627 9.85038 11.9379 10.2268L13.4839 11.5502H2.4629C1.93145 11.5502 1.5 12.2043 1.5 12.7357C1.5 13.2671 1.93145 13.904 2.4629 13.904H13.4839L11.9379 15.2435Z"
              fill="white"/>
    </g>
</svg>
