<svg width="23" height="23" viewBox="0 0 23 23" fill="none" xmlns="http://www.w3.org/2000/svg">
    <path d="M21.8928 9.01619C22.0366 9.60448 21.5674 10.1411 20.9618 10.1418L20.0789 10.1428L7.09516 10.1428C6.38243 10.1428 6.0255 9.28106 6.52947 8.77709L9.49824 5.80832C9.75033 5.55623 10.1814 5.73495 10.1811 6.09146L10.1796 8.13333L19.4853 8.13332C18.1143 4.89401 14.922 2.61574 11.1832 2.61351C7.01075 2.61351 3.50545 5.44969 2.47103 9.29642C2.34184 9.77687 1.9231 10.1383 1.42558 10.1383C0.807895 10.1383 0.328901 9.59105 0.476782 8.99134C1.6635 4.17872 6 0.606461 11.1809 0.608538C16.37 0.610616 20.7139 4.19242 21.8928 9.01619ZM15.2734 12.4643C15.9861 12.4643 16.3431 13.3261 15.8391 13.83L12.8696 16.7995C12.6176 17.0515 12.1867 16.873 12.1867 16.5167V14.4716L2.52706 14.4716C3.61355 18.2373 7.06792 20.9927 11.1831 20.995C15.6766 20.9929 19.3928 17.7083 20.0864 13.4121C20.1717 12.8841 20.6072 12.4643 21.142 12.4643C21.7162 12.4643 22.1788 12.945 22.0987 13.5136C21.3445 18.8727 16.7524 22.9978 11.1854 22.9999C5.61359 23 1.02159 18.869 0.270925 13.5059C0.191917 12.9415 0.65101 12.4643 1.22098 12.4643L1.57142 12.4643L15.2734 12.4643Z"
          fill="white"/>
</svg>
