<svg width="14" height="14" viewBox="0 0 14 14" fill="none" xmlns="http://www.w3.org/2000/svg">
    <path d="M12.4527 4.69525H9.79882C9.46026 4.69525 9.18641 4.42094 9.18641 4.08282C9.18641 3.74472 9.46028 3.47041 9.79882 3.47041H10.8642C9.90317 2.11249 8.3229 1.22486 6.53256 1.22486C3.6012 1.22486 1.22487 3.6012 1.22487 6.53251C1.22487 9.46386 3.60121 11.8402 6.53256 11.8402C9.4639 11.8402 11.8402 9.46384 11.8402 6.53251C11.8402 6.19442 12.1141 5.92011 12.4526 5.92011C12.7907 5.92011 13.0651 6.19442 13.0651 6.53251C13.0651 10.1403 10.1401 13.065 6.53255 13.065C2.92497 13.065 1.5625e-10 10.1403 0 6.53251C0 2.92473 2.92497 1.5625e-10 6.53255 0C8.72203 0 10.6559 1.07948 11.8402 2.73336V1.63314C11.8402 1.29501 12.1141 1.02071 12.4526 1.02071C12.7907 1.02071 13.0651 1.29501 13.0651 1.63314V4.08282C13.0651 4.42094 12.7907 4.69525 12.4527 4.69525Z"
          fill="white"/>
</svg>
