<svg width="16" height="16" viewBox="0 0 16 16" fill="none" xmlns="http://www.w3.org/2000/svg">
    <path d="M10.6654 5.8667V4.53337C10.6654 3.06061 9.47146 1.8667 7.9987 1.8667V1.8667C6.52594 1.8667 5.33203 3.06061 5.33203 4.53337V5.8667"
          stroke="#A8AEAC" stroke-width="1.4"/>
    <rect x="2.29961" y="6.03301" width="11.4" height="8.2" rx="1.43333" stroke="#A8AEAC" stroke-width="1.4"/>
    <path fill-rule="evenodd" clip-rule="evenodd"
          d="M8.53249 10.2579C8.85192 10.0736 9.06693 9.72854 9.06693 9.33327C9.06693 8.74416 8.58936 8.2666 8.00026 8.2666C7.41116 8.2666 6.93359 8.74416 6.93359 9.33327C6.93359 9.72763 7.1476 10.072 7.46582 10.2566V11.467C7.46582 11.7615 7.7046 12.0003 7.99915 12.0003C8.29371 12.0003 8.53249 11.7615 8.53249 11.467V10.2579Z"
          fill="#A8AEAC"/>
</svg>
