<svg width="24" height="24" viewBox="0 0 24 24" fill="none" xmlns="http://www.w3.org/2000/svg">
    <g opacity="0.6">
        <path fill-rule="evenodd" clip-rule="evenodd"
              d="M2.38387 8.36049C2.94902 7.02232 3.76024 5.82011 4.79167 4.78755C5.82423 3.755 7.02644 2.94491 8.36348 2.37975C11.1331 1.20675 14.3442 1.20675 17.1127 2.37975C18.4497 2.94491 19.6519 3.75612 20.6845 4.78755C21.0609 5.16282 21.0609 5.77292 20.6845 6.14931C20.3081 6.52459 19.5274 6.52683 19.151 6.15044C18.2948 5.2954 17.47 4.84311 16.3633 4.37458C14.0701 3.40382 11.4072 3.40157 9.11403 4.37458C8.00619 4.84311 7.20168 5.50044 6.34553 6.35547C5.49049 7.21163 4.84184 8.00438 4.37444 9.11334C3.88906 10.2594 3.69719 11.4761 3.69719 12.7345C3.69719 13.9929 3.88793 15.1867 4.37444 16.3338C4.84072 17.4417 5.49049 18.2739 6.34553 19.13C7.20168 19.9851 8.00731 20.6649 9.11403 21.1345C11.4072 22.1053 14.0701 22.1075 16.3633 21.1345C17.4711 20.666 18.2948 20.1737 19.151 19.3186C19.5274 18.9422 20.3081 18.9434 20.6845 19.3186C21.0609 19.695 21.0609 20.3051 20.6845 20.6804C19.6519 21.7129 18.4497 22.523 17.1127 23.0882C15.7285 23.6747 14.2555 23.9724 12.7375 23.9724C11.2196 23.9724 9.74772 23.6747 8.36236 23.0893C7.02532 22.5242 5.8231 21.7129 4.79055 20.6815C3.75799 19.649 2.9479 18.4467 2.38387 17.1097C1.79737 15.7243 1.49962 14.2525 1.49962 12.7345C1.49962 11.2166 1.79849 9.74472 2.38387 8.36049Z"
              fill="white"/>
        <path fill-rule="evenodd" clip-rule="evenodd"
              d="M12.5757 15.2435C12.951 15.6188 12.951 16.2277 12.5757 16.6041L12.5746 16.6064C12.1994 16.9817 11.5893 16.9817 11.214 16.6064L8.03205 13.4244C7.65678 13.0492 7.65678 12.4413 8.03093 12.0661L11.214 8.86726C11.5893 8.48975 12.1994 8.48975 12.5757 8.86614C12.951 9.24141 12.951 9.85038 12.5757 10.2268L11.0297 11.5502H22.0508C22.5822 11.5502 23.0137 12.2043 23.0137 12.7357C23.0137 13.2671 22.5822 13.904 22.0508 13.904H11.0297L12.5757 15.2435Z"
              fill="white"/>
    </g>
</svg>
