<svg width="23" height="24" viewBox="0 0 23 24" fill="none" xmlns="http://www.w3.org/2000/svg">
    <path d="M1.6785 12.0677C1.6785 10.7551 1.93547 9.48203 2.44228 8.28383C2.93189 7.12626 3.63291 6.08655 4.52588 5.19358C5.41884 4.30061 6.45858 3.59959 7.61611 3.10998C8.81435 2.60317 10.0874 2.34615 11.4 2.34615C13.3968 2.34615 15.335 2.96022 16.9576 4.09136L14.6169 4.48583C14.3593 4.52924 14.1856 4.7733 14.229 5.03092C14.268 5.26192 14.4682 5.4254 14.695 5.4254C14.7211 5.4254 14.7475 5.42324 14.7741 5.41876L18.2109 4.83955C18.4685 4.79615 18.6421 4.55209 18.5988 4.29449L18.0652 1.1279C18.0218 0.870319 17.778 0.696693 17.5201 0.740029C17.2625 0.783436 17.0889 1.02747 17.1322 1.28509L17.4711 3.29584C15.696 2.0668 13.5797 1.40012 11.4 1.40012C9.96012 1.40012 8.56306 1.68224 7.24758 2.23862C5.97724 2.77593 4.83645 3.54503 3.8569 4.5246C2.87738 5.50415 2.10825 6.64492 1.57095 7.91528C1.01454 9.23073 0.732422 10.6278 0.732422 12.0677C0.732422 13.733 1.10559 15.3281 1.84158 16.809C1.92424 16.9753 2.09161 17.0716 2.26554 17.0716C2.33849 17.0716 2.41044 17.0546 2.4757 17.022C2.70968 16.9058 2.80505 16.6219 2.68877 16.3879C2.01841 15.0391 1.6785 13.5856 1.6785 12.0677ZM21.0103 7.36108C20.8941 7.12712 20.6102 7.03169 20.3762 7.14796C20.1423 7.26421 20.0468 7.54811 20.1631 7.78208C20.8334 9.13103 21.1733 10.5846 21.1733 12.1025C21.1733 13.415 20.9163 14.6881 20.4095 15.8863C19.9199 17.0439 19.2188 18.0835 18.3259 18.9765C17.4329 19.8695 16.3932 20.5705 15.2356 21.0601C14.0374 21.5669 12.7643 21.8239 11.4517 21.8239C9.46434 21.8241 7.52467 21.215 5.89418 20.0787L8.23484 19.6844C8.49244 19.6409 8.66609 19.3969 8.6227 19.1393C8.57927 18.8816 8.33531 18.7082 8.07764 18.7514L4.64088 19.3305C4.51718 19.3513 4.40683 19.4205 4.3341 19.5227C4.26137 19.6249 4.23221 19.7518 4.25304 19.8756L4.78664 23.0423C4.82555 23.2733 5.0258 23.4368 5.25253 23.4368C5.27862 23.4368 5.30513 23.4346 5.3317 23.4301C5.58928 23.3867 5.76295 23.1427 5.71955 22.8851L5.38073 20.8742C7.15577 22.1032 9.27206 22.7699 11.4518 22.7699C12.8917 22.7699 14.2888 22.4878 15.6042 21.9314C16.8746 21.3941 18.0154 20.625 18.9949 19.6454C19.9745 18.6659 20.7436 17.5251 21.2809 16.2548C21.8373 14.9394 22.1194 13.5423 22.1194 12.1024C22.1194 10.4372 21.7462 8.842 21.0103 7.36108Z"
          fill="white" stroke="white" stroke-width="1.2"/>
</svg>
