<svg width="20" height="20" viewBox="0 0 20 20" fill="none" xmlns="http://www.w3.org/2000/svg">
    <path d="M9.02831 1.73112C9.54398 1.4334 10.1793 1.4334 10.695 1.73112L16.3895 5.01887C16.9052 5.3166 17.2229 5.86681 17.2229 6.46225V13.0377C17.2229 13.6332 16.9052 14.1834 16.3895 14.4811L10.695 17.7689C10.1793 18.0666 9.54398 18.0666 9.02831 17.7689L3.33376 14.4811C2.81809 14.1834 2.50043 13.6332 2.50043 13.0377V6.46225C2.50043 5.86681 2.81809 5.3166 3.33376 5.01887L9.02831 1.73112Z"
          stroke="#6A7672" stroke-width="1.66667"/>
    <path d="M12.4667 10C12.4667 11.4175 11.3176 12.5667 9.90006 12.5667C8.48253 12.5667 7.33339 11.4175 7.33339 10C7.33339 8.58247 8.48253 7.43333 9.90006 7.43333C11.3176 7.43333 12.4667 8.58247 12.4667 10Z"
          stroke="#6A7672" stroke-width="1.66667"/>
</svg>
